<?xml version="1.0" encoding="UTF-8" standalone="no"?>
<svg
   xmlns:dc="http://purl.org/dc/elements/1.1/"
   xmlns:cc="http://creativecommons.org/ns#"
   xmlns:rdf="http://www.w3.org/1999/02/22-rdf-syntax-ns#"
   xmlns:svg="http://www.w3.org/2000/svg"
   xmlns="http://www.w3.org/2000/svg"
   width="1024"
   height="1024"
   viewBox="0 0 1024 1024"
   id="svg4190"
   version="1.1">
  <defs
     id="defs4192" />
  <metadata
     id="metadata4195">
    <rdf:RDF>
      <cc:Work
         rdf:about="">
        <dc:format>image/svg+xml</dc:format>
        <dc:type
           rdf:resource="http://purl.org/dc/dcmitype/StillImage" />
        <dc:title></dc:title>
      </cc:Work>
    </rdf:RDF>
  </metadata>
  <g
     id="layer1"
     transform="matrix(0.58536242,0,0,0.58536242,475.71924,159.39891)">
    <path
       d="m 510.15929,700.03361 c 60.88458,-0.14939 122.03294,-20.77027 172.01651,-62.83135 81.94197,-68.99148 118.90502,-185.02303 89.86446,-282.18906 l -0.50887,-1.8394 c -4.7619,-17.83143 -26.38885,-72.11007 -61.2464,-84.26458 -39.89255,-13.91921 -97.1707,-6.39121 -143.58985,108.45922 -33.02982,81.72021 -52.97843,189.8246 -56.1717,304.40423 -0.16574,6.0971 -0.28245,12.18019 -0.36415,18.26094 m -1.73902,306.89019 c -0.86602,0.3152 -1.7437,0.6186 -2.62838,0.8987 -26.70864,8.4641 -55.26135,-6.1788 -63.78608,-32.71 C 425.8037,924.65274 415.06142,859.30738 410.71969,787.53579 341.74455,768.61659 277.592,729.63907 227.9469,671.41788 164.2612,596.72147 133.67302,501.85702 141.79392,404.29183 149.91949,306.7243 195.79709,218.146 270.96269,154.87114 321.51583,112.33386 382.54747,84.100952 447.53802,73.167264 c 4.5985,-0.973387 13.93088,-2.609706 24.73618,-2.663394 39.6708,-0.198412 57.93408,20.774941 65.29634,33.29359 28.17456,47.91542 -13.66477,103.27013 -63.08812,155.93344 -19.11995,20.39214 -51.23941,21.5009 -71.74591,2.50466 -19.91593,-18.45468 -21.54525,-49.11289 -4.08963,-69.52135 -22.26653,10.08868 -43.16052,23.22825 -62.05405,39.12925 -54.48636,45.86126 -87.73794,110.06286 -93.62495,180.76301 -5.88468,70.70716 16.28382,139.47689 62.4462,193.60611 28.93786,33.95419 64.68476,58.87011 103.58526,74.44665 0,-0.55089 0.0327,-1.11578 0.0444,-1.69001 2.49532,-89.27388 15.52051,-220.59485 63.44293,-339.20809 29.13861,-72.08671 68.37523,-123.1324 116.60111,-151.68977 47.51625,-28.1302 101.06191,-33.10452 154.841,-14.34171 89.87379,31.36782 121.2953,136.95356 125.68605,153.38911 19.55179,66.05264 18.42201,137.83123 -3.26797,207.65137 -21.91172,70.51108 -62.91305,132.56513 -118.55488,179.39744 -32.79639,27.59099 -69.10352,48.52233 -107.18702,62.87805 -41.01767,15.48783 -84.08949,23.34496 -127.14731,23.78847 4.43277,55.59047 13.09755,105.67442 25.2684,143.60153 8.23528,25.65355 -5.27076,53.05079 -30.30573,62.48818"
       id="path47"
       style="fill:#ffffff;fill-opacity:0.1254902" />
  </g>
</svg>
