<svg xmlns="http://www.w3.org/2000/svg" width="1200" height="215" viewBox="0 0 1200 214.8"><path d="M623 55.7c1.6 0 3-0.6 4.2-1.9 1.2-1.2 1.8-2.7 1.8-4.3 0-1.6-0.6-3-1.9-4.3 -1.2-1.2-2.7-1.9-4.3-1.9 -1.8 0-3.2 0.6-4.4 1.9 -1.2 1.2-1.8 2.7-1.8 4.3 0 1.6 0.7 3 2 4.3C620 55.1 621.4 55.7 623 55.7zM609.5 71.9c-0.7 2.8-1.4 5.6-2 8.3 -0.6 2.8-1 5.2-1.3 7.2 -0.1 0.6-0.1 0.9 0.1 1 0.2 0.1 0.9 0.1 2.1 0.1 1.2 0 1.8-0.4 2-1.1 0.4-3.2 1.3-7.2 2.7-12.1 1.4-4.8 3-9.1 4.7-12.7 13 3.4 25.7 8 38.1 13.9 12.4 5.9 24.1 13.2 35.1 21.8 1.3 1 2.6 1.9 3.7 2.6 0.1 0.1 0.4 0.1 0.7-0.2 0.3-0.3 0.5-0.6 0.8-1 0.2-0.4 0.5-0.9 0.8-1.6 -0.4-0.4-1.1-1-1.9-1.8 -0.8-0.7-1.5-1.3-2.1-1.8 -6-4.5-11.8-8.6-17.5-12.3 -5.7-3.6-11.7-7-17.9-10.1 -6.2-3.1-12.8-5.8-19.8-8.3 -7-2.5-14.8-4.8-23.5-7 -0.7 1.9-1.5 4.2-2.4 6.8C611 66.4 610.2 69.1 609.5 71.9zM680 197.7c-5.8-2.3-12.2-4.3-19-5.9 -6.8-1.6-13.7-2.9-20.8-3.9 -7.1-1-14.1-1.8-21-2.3 -6.9-0.5-13.4-0.8-19.4-0.8 -6.3 0-13 0.2-20.3 0.7 -7.2 0.4-14.5 1.2-21.8 2.3 -7.3 1.1-14.5 2.5-21.6 4.3 -7.1 1.8-13.6 3.9-19.6 6.4 -1.5 0.6-2.2 1.2-2.2 2 0 0.9 0.8 1.5 2.4 2 14.6 5 29 8.3 43.1 10 14.1 1.7 29 2.5 44.6 2.5 14 0 27.1-0.8 39.1-2.3 12.1-1.5 24.4-4.7 36.9-9.5 1.9-0.6 2.8-1.5 2.8-2.6C683.3 199.4 682.2 198.5 680 197.7zM639.5 60.1c1.6 0 3-0.6 4.2-1.8 1.2-1.2 1.8-2.6 1.8-4.2 0-1.6-0.6-3-1.9-4.2 -1.2-1.2-2.7-1.8-4.3-1.8 -1.6 0-3 0.6-4.1 1.8 -1.1 1.2-1.6 2.6-1.6 4.2 0 1.6 0.6 3 1.8 4.2C636.5 59.5 637.9 60.1 639.5 60.1zM680.3 79.1c1.2 0 2.2-0.4 3.1-1.3 0.9-0.9 1.3-2 1.3-3.3 0-1.2-0.5-2.2-1.4-3.1 -1-0.9-2-1.3-3.2-1.3 -1.2 0-2.2 0.4-3.1 1.3 -0.9 0.9-1.3 1.9-1.3 3.1 0 1.3 0.5 2.4 1.4 3.3C678 78.7 679.1 79.1 680.3 79.1zM691.2 86.8c1.2 0 2.2-0.4 3.1-1.3 0.9-0.9 1.3-1.9 1.3-3.1 0-1.2-0.4-2.2-1.3-3.1 -0.9-0.9-1.9-1.3-3.1-1.3 -1.2 0-2.2 0.4-3.1 1.3 -0.9 0.9-1.3 1.9-1.3 3.1 0 1.2 0.4 2.2 1.3 3.1C689 86.4 690.1 86.8 691.2 86.8zM655.1 66c1.6 0 2.9-0.5 3.9-1.6 1-1.1 1.5-2.4 1.5-4.1 0-1.6-0.5-3-1.6-4.1 -1.1-1.1-2.4-1.6-4.1-1.6 -1.6 0-3 0.5-4.1 1.6 -1.1 1.1-1.6 2.5-1.6 4.1 0 1.6 0.6 3 1.8 4.1C652.1 65.4 653.4 66 655.1 66zM700.2 94.7c1 0 1.9-0.4 2.6-1.1 0.7-0.7 1.1-1.6 1.1-2.6 0-1-0.4-1.9-1.2-2.6 -0.8-0.7-1.7-1.1-2.7-1.1 -1 0-1.9 0.4-2.5 1.1 -0.7 0.7-1 1.6-1 2.6 0 1 0.4 1.9 1.1 2.6C698.3 94.3 699.2 94.7 700.2 94.7zM668.2 72.1c1.5 0 2.7-0.5 3.6-1.5 0.9-1 1.4-2.3 1.4-3.7 0-1.3-0.5-2.5-1.6-3.5 -1.1-1-2.3-1.5-3.6-1.5 -1.5 0-2.7 0.5-3.6 1.5 -1 1-1.4 2.2-1.4 3.5 0 1.5 0.5 2.7 1.5 3.7C665.5 71.6 666.7 72.1 668.2 72.1zM506.4 85.9c1.2 0 2.2-0.4 3.1-1.3 0.9-0.9 1.3-1.9 1.3-3.1 0-1.2-0.5-2.2-1.4-3.1 -1-0.9-2-1.3-3.2-1.3 -1.2 0-2.2 0.4-3 1.3 -0.8 0.9-1.2 1.9-1.2 3.1 0 1.2 0.4 2.2 1.3 3.1C504.2 85.5 505.2 85.9 506.4 85.9zM517.2 78.3c1.2 0 2.2-0.4 3.1-1.3 0.9-0.9 1.3-2 1.3-3.3 0-1.2-0.5-2.2-1.4-3.1 -1-0.9-2-1.3-3.2-1.3 -1.2 0-2.2 0.4-3.1 1.3 -0.9 0.9-1.3 1.9-1.3 3.1 0 1.3 0.5 2.4 1.4 3.3C514.9 77.8 516 78.3 517.2 78.3zM504 100c0.6-0.3 1.3-0.8 2.2-1.6 0.9-0.8 1.7-1.5 2.4-2.1 4.5-3.7 9.6-7.2 15.2-10.6 5.6-3.4 11.5-6.6 17.6-9.5 6.1-2.9 12.4-5.5 18.7-7.8 6.4-2.3 12.6-4.1 18.7-5.4 1.8 3.7 3.3 7.9 4.6 12.6 1.3 4.8 2.3 9 3.1 12.6 0.1 0.3 0.9 0.4 2.2 0.4 1.3 0 1.9-0.4 1.8-1.1 -0.3-2.2-0.7-4.6-1.3-7.3 -0.6-2.7-1.2-5.4-2-8.2 -0.7-2.8-1.5-5.5-2.3-8.1 -0.8-2.6-1.6-4.8-2.3-6.6 -8.3 2-16 4.2-22.9 6.6 -6.9 2.3-13.5 4.9-19.6 7.8 -6.1 2.9-12 6-17.5 9.4 -5.6 3.4-11 7.3-16.4 11.5 -0.6 0.4-1.4 1.1-2.4 2.1 -1 1-1.7 1.7-2 2.3 -0.1 0.3 0.1 0.9 0.8 1.9C503.2 99.7 503.7 100.1 504 100zM542.2 65.1c1.6 0 2.9-0.5 3.9-1.6 1-1.1 1.5-2.4 1.5-4.1 0-1.6-0.5-3-1.6-4.1 -1.1-1.1-2.4-1.6-4.1-1.6 -1.6 0-3 0.5-4.1 1.6 -1.1 1.1-1.6 2.5-1.6 4.1 0 1.6 0.6 3 1.8 4.1C539.2 64.6 540.5 65.1 542.2 65.1zM529.2 71.3c1.5 0 2.7-0.5 3.6-1.5 1-1 1.4-2.3 1.4-3.7 0-1.3-0.5-2.5-1.6-3.5 -1.1-1-2.3-1.5-3.6-1.5 -1.5 0-2.7 0.5-3.6 1.5 -1 1-1.4 2.2-1.4 3.5 0 1.5 0.5 2.7 1.5 3.7C526.5 70.7 527.8 71.3 529.2 71.3zM714.4 102.9c-3-0.7-6.1-1.2-9.3-1.6 0.3 1.5 0.5 3.2 0.8 5.2 0.2 2 0.5 4 0.8 6 0.3 2.3 0.5 4.8 0.7 7.2 0 1.2-0.4 1.5-1.1 0.9 -1.9-1.6-3.7-3.4-5.5-5.3 -1.8-1.9-3.4-3.8-5-5.7 -1.2 3.9-2.4 8.7-3.8 14.1 -1.4 5.5-2.7 10.3-3.8 14.6 2.6-1.5 5.2-2.6 7.7-3.5 2.5-0.9 5.1-1.8 7.9-2.8 -2 8.3-4.8 14.5-8.3 18.5 -3.5 4-8.8 6.2-16 6.5 -1 0.1-2 0.1-3.1 0 -1-0.1-2-0.4-3.1-0.7 -4.7-1.2-8.5-2.9-11.6-5.3 -3.1-2.3-4.6-6.3-4.6-11.8 0-1.3 0.2-2.7 0.5-4.2 0.4-1.5 0.9-2.8 1.6-4.2 0.7-1.3 1.6-2.4 2.7-3.2 1.1-0.8 2.4-1.2 4.1-1.2 5.1 0 7.7 2.6 7.7 7.7 0 1.2-0.2 2.7-0.5 4.6 -0.4 1.9-1 3.4-1.9 4.4 1.9-0.6 3.8-1.5 5.6-2.8 1.8-1.3 3.5-2.9 4.9-4.7 1.5-1.8 2.6-3.8 3.5-5.8 0.9-2 1.3-4.1 1.3-6.1 0-3.8-1.5-7.1-4.4-10 -2.9-2.8-6.3-4.3-10.1-4.3 -2.3 0-4.5 0.6-6.4 1.8 -1.9 1.2-3.7 2.5-5.3 3.9 1.6-2.8 2.9-5.6 3.8-8.5 0.9-2.9 1.4-6 1.4-9.2 0-2.9-0.5-5.6-1.6-8.1 -1.1-2.5-2.6-4.9-4.5-7.2 -3.4 2.6-6.1 5.8-8.3 9.4 -2.2 3.7-3.3 7.8-3.3 12.5 0 2.5 0.2 5 0.7 7.7 -1.6-1.8-3.5-3.5-5.8-5.3 -2.3-1.8-4.6-2.6-7.1-2.6 -4.7 0-8.1 1.5-10.2 4.4 -2.1 2.9-3.2 6.5-3.2 10.7 0 2.2 0.5 4.3 1.5 6.4 1 2 2.3 3.9 3.9 5.5 0.7-1.6 1.9-3.4 3.4-5.5 1.5-2 3.4-3.1 5.6-3.1 2.6 0 4.7 0.9 6.2 2.7 1.5 1.8 2.3 4 2.3 6.5 0 2.9-0.6 5.4-1.9 7.6 -1.2 2.1-2.9 3.9-4.9 5.3 -2 1.4-4.3 2.4-6.8 3.2 -2.5 0.7-5 1.1-7.7 1.1 -6.3 0-11.2-1.8-14.8-5.4 -3.6-3.6-5.4-8.6-5.4-15v-3.9c2.5 1.2 4.7 2.2 6.8 3.2 2 1 4.2 2.1 6.6 3.4l0.7-27c-2 1.6-4.3 3.2-6.8 4.8 -2.5 1.6-4.8 3-6.8 4.2 -0.6 0.3-0.7 0-0.4-0.9 0.7-2.3 1.6-5.2 2.7-8.7 1.1-3.4 2.5-7 4.3-10.9h-25.4c1.5 3.4 2.8 6.5 4.1 9.4 1.2 2.9 2.4 6.2 3.4 9.9 0.1 0.7-0.1 1-0.7 0.7 -2.3-1.2-4.5-2.4-6.6-3.7 -2-1.3-4.4-2.8-7-4.6l0.9 26.7c2.3-1.2 4.8-2.3 7.3-3.5 2.6-1.2 4.9-2.2 6.9-3.1 0.1 0.7 0.3 1.4 0.3 1.9 0.1 0.5 0.1 1.1 0.1 1.9 0 3.7-0.7 6.8-2.2 9.3 -1.5 2.6-3.4 4.6-5.8 6.2 -2.4 1.6-5.1 2.8-8.1 3.5 -3 0.7-6 1.1-8.9 1.1 -2.2 0-4.6-0.4-7.1-1.1 -2.6-0.7-4.9-1.8-7-3.3 -2.1-1.5-3.9-3.2-5.3-5.3 -1.4-2-2.1-4.4-2.1-7 0-2.8 0.8-5.2 2.3-7.3 1.5-2.1 3.8-3.2 6.7-3.2 2.9 0 5.3 1 7 3 1.8 2 2.6 4.3 2.6 6.9 0 0.6-0.1 1-0.2 1.3 5.6-3.2 8.3-7.8 8.3-13.8 0-3.5-1.3-6.8-3.8-9.9 -2.6-3.1-5.7-4.6-9.3-4.6 -2.6 0-5.1 0.8-7.3 2.3 -2.3 1.5-4.3 3.2-6 4.9 0.4-1.6 0.8-3.1 1.2-4.6 0.4-1.5 0.5-3 0.5-4.6 0-4.7-1-8.7-3-12.1 -2-3.4-4.9-6.4-8.7-9 -1.6 2.3-3 4.9-4.3 7.7 -1.2 2.8-1.9 5.7-1.9 8.8 0 2.9 0.3 5.4 0.8 7.5 0.5 2 1.6 4.3 3.2 6.8 -1.6-1.2-3-2-4.3-2.6 -1.2-0.6-2.9-0.9-4.9-0.9 -5.4 0-9.7 1.8-12.8 5.5 -3.1 3.7-4.7 8-4.7 13.2 0 3.2 0.8 6.4 2.3 9.6 1.5 3.2 4.1 5.1 7.8 5.7 -0.4-1.8-0.7-3.4-0.7-5 0-3.5 0.8-6.4 2.4-8.5 1.6-2.2 4.3-3.3 8.1-3.3 3.1 0 5.5 1.3 7.3 3.9 1.8 2.6 2.7 5.3 2.7 8.1 0 2.9-0.6 5.6-1.9 8 -1.2 2.4-2.9 4.4-5 6 -2.1 1.6-4.5 2.9-7 3.7 -2.6 0.9-5.2 1.3-7.8 1.3 -3.7 0-6.8-0.7-9.5-2 -2.7-1.3-5.1-3.1-7.1-5.3 -2-2.2-3.8-4.7-5.3-7.6 -1.5-2.9-2.6-5.8-3.5-8.9 0.7 0 1.7 0.1 2.9 0.4 2.3 0.7 4.4 1.5 6.1 2.2 1.8 0.7 3.4 1.8 5 3.1 -1-4.7-1.9-9.3-2.7-13.8 -0.8-4.5-1.7-9.1-2.7-13.8 -1.3 1.8-3.3 3.8-5.8 6 -2.6 2.3-4.8 3.6-6.7 4.1 -0.3 0.3-0.4 0.1-0.4-0.7 0-0.3 0.3-1.2 0.9-2.9 0.6-1.6 1.2-3.4 2-5.5 0.7-2 1.5-4.1 2.2-6 0.7-2 1.3-3.5 1.8-4.7 -2.6 0.4-5.9 1.1-9.8 2.1 -3.9 1-6.9 1.8-9.1 2.5l5 14.7c-1.5 2.8-1.9 5.7-1.4 8.7 0.5 3 1.8 5.4 3.8 7.3 0.7 0.9 1.7 1.6 2.9 2.2l6.6 21c0 0.9-0.1 2.2-0.3 3.8 -0.2 1.7-0.4 3.5-0.5 5.4 -0.1 1.9-0.3 3.7-0.4 5.5 -0.1 1.8-0.2 3-0.2 3.7V179c0 0.5 0.1 0.9 0.2 1.2 0.3 1.2 1 2.3 2.2 3.3 2 1.5 3.9 3 5.7 4.6 1.6 1.3 3.3 2.7 4.9 4.3 1.7 1.5 3.3 2.9 4.7 4.1 6-3.1 12.8-5.7 20.4-7.8 7.6-2.1 15.5-3.9 23.7-5.3 8.2-1.4 16.3-2.4 24.4-3 8.1-0.6 15.6-0.9 22.5-0.9 7.2 0 14.6 0.3 22.3 0.9 7.7 0.6 15.4 1.5 23.1 2.9 7.7 1.3 15.5 3.1 23.1 5.3 7.7 2.2 15 4.9 22 8.1l12.5-15.6c1.2-1.3 1.6-2.9 1.3-4.8 -0.3-1.9-0.8-4.4-1.4-7.5 -0.7-3.1-1.3-5.6-1.9-7.5l9.4-22.1c1.2-0.6 2.1-1.3 2.7-2.1 0.7-0.8 1.1-1.5 1.4-2.1 0.7-1.2 1.4-2.8 1.9-4.9 0.5-2.1 0.5-4.4-0.1-6.9 0.9-2.3 1.7-4.6 2.4-6.8 0.7-1.9 1.4-3.8 2.1-5.8 0.7-2 1.3-3.7 1.9-5.2C720 104.4 717.4 103.6 714.4 102.9zM488.8 133.3c-0.2 0.7-0.7 1.1-1.4 1.1 -0.7 0-1.4-0.3-2-0.9 -0.6-0.6-1.1-1.3-1.5-2.2 -0.4-0.9-0.8-1.8-1-2.6s-0.3-1.6-0.3-2.2c0-0.6 0.1-1.3 0.2-2.2 0.1-0.9 0.6-1.3 1.3-1.3 0.7 0 1.4 0.3 2 1 0.6 0.7 1.1 1.4 1.5 2.3 0.4 0.9 0.8 1.8 1.1 2.7 0.3 1 0.4 1.7 0.4 2.3C489.1 131.9 489 132.6 488.8 133.3zM503.6 179.8c0 2.8-0.2 4.8-0.7 6.1 -1.5-1.2-3.1-2.5-4.9-4.1 -1.8-1.5-2.7-2.7-2.7-3.4 0-0.3 0.1-1.5 0.3-3.5 0.2-2 0.5-3.9 0.8-5.5l7.2 5.9V179.8zM513 167.7c0-1.2 0.4-2.2 1.2-3.1 0.8-0.9 1.8-1.3 3-1.3 1.2 0 2.2 0.4 3.1 1.3 0.9 0.9 1.3 1.9 1.3 3.1 0 2.8-1.4 4.2-4.2 4.2 -1.2 0-2.2-0.4-3.1-1.2C513.4 169.9 513 168.9 513 167.7zM524.6 182.4c-0.9 0.9-1.9 1.3-3.1 1.3 -1.2 0-2.2-0.4-3.2-1.3 -1-0.9-1.4-1.9-1.4-3.1 0-1.2 0.4-2.2 1.3-3.1 0.9-0.9 1.9-1.3 3.1-1.3 1.2 0 2.2 0.4 3.2 1.3 0.9 0.9 1.4 1.9 1.4 3.1C525.9 180.5 525.5 181.5 524.6 182.4zM559.4 171c-2.4 2.3-5.5 3.9-9.3 4.6 -3.8 0.6-7.2 0.1-10.1-1.4 -2.9-1.5-4.6-3.8-5-6.7 -0.4-2.8 0.5-5.4 2.9-7.8 2.3-2.4 5.4-3.9 9.2-4.5 3.8-0.7 7.2-0.3 10.1 1.3 2.9 1.6 4.6 3.8 5 6.6C562.7 166 561.8 168.7 559.4 171zM573.2 154.9c0.8-0.8 1.8-1.2 3-1.2 1.2 0 2.2 0.4 3.1 1.2 0.9 0.8 1.3 1.8 1.3 3 0 1.2-0.4 2.2-1.2 3.1 -0.8 0.9-1.8 1.3-3 1.3 -1.2 0-2.2-0.4-3.1-1.3 -0.9-0.9-1.3-1.9-1.3-3.1C572 156.7 572.4 155.7 573.2 154.9zM580.7 173.6c-0.9 0.9-1.9 1.3-3.1 1.3 -1.2 0-2.2-0.4-3.2-1.3 -1-0.9-1.4-2-1.4-3.3 0-1.2 0.4-2.2 1.3-3.1 0.9-0.9 1.9-1.3 3.1-1.3 1.2 0 2.2 0.4 3.2 1.3 0.9 0.9 1.4 1.9 1.4 3.1C582.1 171.7 581.6 172.8 580.7 173.6zM596 115.3c0.7-0.7 1.5-1.1 2.5-1.1 1.2 0 2.1 0.4 2.9 1.1 0.7 0.7 1.1 1.6 1.1 2.6 0 1-0.4 1.9-1.1 2.6 -0.7 0.7-1.6 1.1-2.6 1.1 -1 0-1.9-0.4-2.6-1.1 -0.7-0.7-1.1-1.6-1.1-2.6C595 116.9 595.3 116 596 115.3zM602.4 165.5c-0.7 1.3-1.5 2.5-2.2 3.5 -0.7 1-1.3 1.5-1.8 1.5 -0.4 0-1-0.5-1.8-1.5 -0.7-1-1.5-2.2-2.2-3.5 -0.9-1.5-1.8-3.1-2.8-5 0.9-1.8 1.8-3.4 2.6-4.8 0.7-1.2 1.5-2.3 2.2-3.4 0.7-1.1 1.3-1.6 1.8-1.6 0.3 0 0.8 0.5 1.6 1.6 0.8 1.1 1.6 2.2 2.3 3.4l3.1 4.8C604.3 162.4 603.3 164.1 602.4 165.5zM621.7 173.4c-0.9 0.9-2 1.3-3.3 1.3 -1.2 0-2.2-0.4-3.1-1.3 -0.9-0.9-1.3-2-1.3-3.3 0-1.2 0.4-2.2 1.2-3.1 0.8-0.9 1.9-1.3 3.2-1.3 1.2 0 2.2 0.4 3.2 1.3s1.4 1.9 1.4 3.1C623 171.4 622.6 172.5 621.7 173.4zM623.2 160.9c-0.8 0.9-1.8 1.3-3 1.3 -1.2 0-2.2-0.4-3.1-1.3 -0.9-0.9-1.3-1.9-1.3-3.1 0-1.2 0.4-2.2 1.2-3 0.8-0.8 1.8-1.2 3-1.2 1.2 0 2.2 0.4 3.1 1.2 0.9 0.8 1.3 1.8 1.3 3C624.4 159 624 160 623.2 160.9zM660.5 167.7c-0.4 2.8-2.2 5-5.2 6.6 -3 1.6-6.4 2-10.2 1.3 -3.8-0.7-6.9-2.3-9.2-4.6 -2.3-2.3-3.3-4.9-2.8-7.7 0.4-2.9 2.2-5.2 5.1-6.7 3-1.5 6.4-2 10.2-1.4 3.8 0.7 6.9 2.3 9.2 4.6C660 162.2 661 164.8 660.5 167.7zM675.9 182c-0.9 0.9-1.9 1.3-3.1 1.3 -1.2 0-2.2-0.4-3.2-1.3 -1-0.9-1.4-1.9-1.4-3.1 0-1.2 0.4-2.2 1.3-3.1 0.9-0.9 1.9-1.3 3.1-1.3 1.2 0 2.2 0.4 3.2 1.3 1 0.9 1.4 1.9 1.4 3.1C677.2 180.1 676.8 181.1 675.9 182zM679.5 170.1c-0.8 0.9-1.8 1.3-3 1.3 -1.2 0-2.2-0.4-3.1-1.3 -0.9-0.9-1.3-1.9-1.3-3.1 0-1.2 0.4-2.2 1.2-3 0.8-0.8 1.8-1.2 3-1.2 1.2 0 2.2 0.4 3.1 1.2 0.9 0.8 1.3 1.8 1.3 3C680.7 168.2 680.3 169.2 679.5 170.1zM697.9 180.2c-1.2 1.5-2.3 2.8-3.2 4.2l-4.2-9 6.8-6.8c0.6 1.2 1.1 2.7 1.6 4.5 0.5 1.8 0.8 3.1 0.8 3.8C699.8 177.6 699.2 178.7 697.9 180.2zM712.6 129c-0.2 1-0.5 1.9-1 2.7 -0.4 0.9-1 1.6-1.5 2.3 -0.6 0.7-1.2 1-2 1 -0.7 0-1.2-0.3-1.4-1 -0.2-0.7-0.3-1.3-0.3-1.9 0-0.6 0.1-1.3 0.3-2.3 0.2-0.9 0.5-1.9 1-2.7 0.4-0.9 0.9-1.6 1.5-2.3 0.6-0.7 1.2-1 2-1s1.2 0.3 1.4 1c0.2 0.7 0.3 1.3 0.3 1.9C712.9 127.3 712.8 128.1 712.6 129zM584.7 25l11.6-4.2v7.9c-3.2 0.4-5.9 1.9-8.1 4.4 -2.2 2.5-3.3 5.3-3.3 8.6 0 3.8 1.4 7 4.1 9.5 2.7 2.6 6 3.8 10 3.8 3.7 0 6.8-1.3 9.4-3.8 2.6-2.6 3.9-5.7 3.9-9.3 0-3.2-1.1-6.1-3.3-8.8 -2.2-2.6-4.8-4.1-7.9-4.4v-7.9l11.8 4.2 0.2-13.6 -10.5 2.9L606.8 0h-16.7l4.6 14.3 -10.7-2.8L584.7 25zM601.1 32.7c1.8 0.7 3.3 1.7 4.5 2.9 1.2 1.2 2 2.6 2.3 4.4 -1.3 0.7-2.5 1.2-3.5 1.5 -1 0.3-2.1 0.4-3.3 0.2v-4.2c0-1.2 0-2.2-0.1-3.1C600.9 33.5 601 33 601.1 32.7zM606.6 46.9c-0.7 1.2-1.9 2.2-3.5 3 -1.6 0.8-3 1.2-4.2 1.2 -1.2 0-2.6-0.3-4.4-1 -1.8-0.7-3.1-1.7-3.9-3.2 1.2-0.7 2.5-1.2 3.9-1.5 1.5-0.3 2.9-0.4 4.2-0.4C601.9 44.9 604.6 45.6 606.6 46.9zM589.1 40.1c1.2-3.8 3.6-6.3 7.2-7.5l0.2 9C593.6 41.7 591.1 41.1 589.1 40.1zM497.9 93.8c1 0 1.9-0.4 2.6-1.1 0.7-0.7 1.1-1.6 1.1-2.6 0-1-0.4-1.9-1.2-2.6 -0.8-0.7-1.7-1.1-2.7-1.1 -1 0-1.9 0.4-2.5 1.1 -0.7 0.7-1 1.6-1 2.6 0 1 0.4 1.9 1.1 2.6C496 93.5 496.8 93.8 497.9 93.8zM598.5 82.4c-1 0-1.9 0.4-2.7 1.1 -0.8 0.7-1.2 1.6-1.2 2.6 0 1.2 0.4 2.1 1.3 2.9 0.9 0.7 1.8 1.1 2.9 1.1 1 0 1.9-0.4 2.7-1.1 0.8-0.7 1.2-1.7 1.2-2.8 0-1-0.4-1.9-1.3-2.6C600.5 82.8 599.5 82.4 598.5 82.4zM601.8 72.3c-1-0.9-2.1-1.3-3.3-1.3 -1.2 0-2.3 0.4-3.3 1.3 -1 0.9-1.5 2-1.5 3.3 0 1.3 0.5 2.4 1.6 3.3 1.1 0.9 2.2 1.3 3.4 1.3 1.2 0 2.2-0.4 3.2-1.3 0.9-0.9 1.4-2 1.4-3.3C603.3 74.3 602.8 73.2 601.8 72.3zM557.5 59.2c1.6 0 3-0.6 4.2-1.8 1.2-1.2 1.8-2.6 1.8-4.2 0-1.6-0.6-3-1.9-4.2 -1.2-1.2-2.7-1.8-4.3-1.8 -1.6 0-3 0.6-4.1 1.8 -1.1 1.2-1.6 2.6-1.6 4.2 0 1.6 0.6 3 1.8 4.2C554.5 58.6 555.9 59.2 557.5 59.2zM573.7 55c1.6 0 3-0.6 4.2-1.9 1.2-1.2 1.8-2.7 1.8-4.3 0-1.6-0.6-3-1.9-4.3 -1.2-1.2-2.7-1.9-4.3-1.9 -1.8 0-3.2 0.6-4.4 1.9 -1.2 1.2-1.8 2.7-1.8 4.3 0 1.6 0.7 3 2 4.3C570.7 54.4 572.1 55 573.7 55zM602.6 59.2c-1.1-1.2-2.4-1.8-3.8-1.8 -1.6 0-3 0.5-4.1 1.6 -1.1 1.1-1.6 2.5-1.6 4.1 0 1.6 0.5 3 1.6 4.1 1.1 1.1 2.4 1.6 3.8 1.6 1.6 0 3-0.5 4.1-1.6 1.1-1.1 1.6-2.4 1.6-4.1C604.2 61.7 603.6 60.4 602.6 59.2z" fill="#FFF"/></svg>