<svg xmlns="http://www.w3.org/2000/svg" width="1200" height="127" viewBox="0 0 1200 127.3"><path d="M413.5 125.1h81v-20.7h-57.7v-33.8h56.9V51.4h-56.9V22.1h57.7V2.5h-81V125.1zM340.9 2.5h-24.2v122.6h83v-23h-58.8V2.5zM217.2 125.1h81v-20.7h-57.7v-33.8h56.9V51.4h-56.9V22.1h57.7V2.5h-81V125.1zM132.6 63.2L98.6 2.3H71.7v122.8h23.3V42.5l37.1 65.8 38.7-65.2v81.9h23.3V2.3h-25.9L132.6 63.2zM987.9 18.5c-5.9-5.8-12.8-10.3-20.7-13.6C959.3 1.6 951 0 942.1 0c-8.9 0-17.3 1.6-25.2 4.9 -7.9 3.3-14.8 7.8-20.8 13.5 -5.9 5.7-10.6 12.5-14 20.3 -3.4 7.8-5.1 16.1-5.1 25s1.7 17.2 5.1 24.9c3.4 7.7 8.1 14.5 14 20.2 5.9 5.7 12.9 10.3 20.8 13.6 7.9 3.3 16.3 5 25.2 5 8.9 0 17.3-1.7 25.1-5 7.9-3.3 14.8-7.9 20.7-13.6 5.9-5.7 10.6-12.5 14-20.3 3.4-7.8 5.1-16.1 5.1-24.9 0-8.9-1.7-17.2-5.1-24.9C998.5 31 993.8 24.3 987.9 18.5zM980 79.5c-2.2 5-5.1 9.4-8.8 13.1 -3.7 3.7-8.1 6.7-13.1 8.9 -5 2.2-10.4 3.3-16 3.3 -5.7 0-11.1-1.1-16.1-3.3 -5-2.2-9.4-5.2-13.1-8.9 -3.7-3.7-6.7-8.1-8.8-13.1 -2.2-5-3.2-10.3-3.2-15.8 0-5.6 1.1-10.9 3.2-15.9 2.2-5 5.1-9.3 8.8-13 3.7-3.7 8.1-6.7 13.1-8.9 5-2.2 10.4-3.3 16.1-3.3 5.6 0 11 1.1 16 3.3 5 2.2 9.4 5.2 13.1 8.9 3.7 3.7 6.7 8.1 8.8 13 2.2 5 3.2 10.3 3.2 15.9C983.3 69.2 982.2 74.5 980 79.5zM1104.4 2.3V82.4L1052.3 2.3h-26.7v122.8h23.3v-86.1l55.4 86.1h23.3V2.3H1104.4zM834.7 51.1h-48.3V2.5h-23.8v122.6h23.8V70.7h48.3v54.3h23.8V2.5h-23.8V51.1zM719 99.5c-5.8 3.4-12.5 5.1-20.1 5.1 -5.7 0-11.1-1.1-16.2-3.3 -5.1-2.2-9.5-5.2-13.3-8.9 -3.8-3.7-6.8-8.1-9-13 -2.2-5-3.3-10.2-3.3-15.7 0-5.6 1.1-10.9 3.3-15.9 2.2-5 5.2-9.3 9-13 3.8-3.7 8.2-6.7 13.3-8.9 5.1-2.2 10.5-3.3 16.2-3.3 7.2 0 13.7 1.7 19.7 5 6 3.3 10.9 7.7 14.7 13.1l16.4-16.9c-5.8-7.1-13.1-12.8-21.9-17.2C719.1 2.2 709.4 0 698.9 0c-9.1 0-17.6 1.6-25.6 4.9 -8 3.3-14.9 7.8-20.8 13.6 -5.9 5.8-10.6 12.5-14 20.3 -3.4 7.7-5.1 16-5.1 24.9s1.7 17.2 5.1 24.9c3.4 7.7 8.1 14.5 14 20.2 5.9 5.7 12.8 10.3 20.8 13.6 8 3.3 16.5 5 25.6 5 10.5 0 20.2-2.2 28.9-6.6 8.7-4.4 16.2-10.3 22.3-17.8l-16.6-17C729.7 91.6 724.8 96.1 719 99.5zM591.6 82.4L539.6 2.3H512.9v122.8h23.3v-86.1l55.4 86.1h23.3V2.3h-23.3V82.4z" fill="#FFF"/></svg>