<svg width="57" height="39" viewBox="0 0 57 39" fill="none" xmlns="http://www.w3.org/2000/svg">
    <g opacity="0.8">
        <path opacity="0.8" d="M9.20001 16.6C12.3 16.6 14.7 14.1 14.7 11.1C14.7 8 12.2 5.6 9.20001 5.6C6.20001 5.6 3.70001 8.1 3.70001 11.1C3.60001 14.2 6.10001 16.6 9.20001 16.6ZM48 16.6C51.1 16.6 53.5 14.1 53.5 11.1C53.5 8 51 5.6 48 5.6C44.9 5.6 42.5 8.1 42.5 11.1C42.4 14.2 44.9 16.6 48 16.6ZM50.7 19.4H45.2C43.7 19.4 42.3 20 41.3 21C44.8 22.9 47.3 26.4 47.8 30.5H53.5C55 30.5 56.3 29.3 56.3 27.7V25C56.3 21.9 53.8 19.4 50.7 19.4ZM28.6 19.4C34 19.4 38.3 15.1 38.3 9.7C38.3 4.3 34 0 28.6 0C23.2 0 18.9 4.3 18.9 9.7C18.9 15.1 23.2 19.4 28.6 19.4ZM35.2 22.2H34.5C32.7 23.1 30.7 23.6 28.6 23.6C26.5 23.6 24.5 23.1 22.7 22.2H22C16.5 22.2 12 26.7 12 32.2V34.7C12 37 13.9 38.9 16.2 38.9H41.2C43.5 38.9 45.4 37 45.4 34.7V32.2C45.2 26.7 40.7 22.2 35.2 22.2ZM15.8 21C14.8 20 13.4 19.4 11.9 19.4H6.40002C3.30002 19.4 0.900024 21.9 0.900024 24.9V27.7C0.900024 29.2 2.10001 30.5 3.70001 30.5H9.40002C9.90002 26.4 12.3 22.9 15.8 21Z" fill="#32BF7C"/>
    </g>
</svg>