<?xml version="1.0" encoding="utf-8"?>
<!-- Generator: Adobe Illustrator 22.0.0, SVG Export Plug-In . SVG Version: 6.00 Build 0)  -->
<svg version="1.1" id="Calque_1" xmlns="http://www.w3.org/2000/svg" xmlns:xlink="http://www.w3.org/1999/xlink" x="0px" y="0px"
	 viewBox="0 0 353 438.5" style="enable-background:new 0 0 353 438.5;" xml:space="preserve">
<style type="text/css">
	.st0{fill:#FFFFFF;}
</style>
<g>
	<g>
		<path class="st0" d="M198.2,143.5c1.1,0.4,2.1,1,3,1.7c0.9,0.7,1.8,1.5,2.6,2.3c0.8,0.8,1.5,1.7,2.2,2.7c0.7,0.9,1.2,2.1,1.8,2.7
			c0.7,0.7,1.5,1.4,2.4,2c0.9,0.6,1.9,1.2,2.8,1.7c2,1,4,2,6,3c2,1,4.1,1.9,6.1,2.8c2.1,0.9,4.1,1.8,6.3,2.5c4.2,1.6,8.6,2.8,12.9,4
			c4.4,1.1,8.7,2.3,13.1,3.5c4.4,1.2,8.7,2.6,13,4.1c4.2,1.6,8.4,3.3,12.5,5.3c2,1,4,2.1,6,3.3c1,0.6,1.9,1.3,2.8,2
			c0.9,0.7,1.7,1.5,2.4,2.4l-0.2,0.1c-1.6-1.6-3.6-2.6-5.6-3.7c-2-1-4.1-1.9-6.1-2.8c-4.1-1.7-8.3-3.3-12.6-4.8
			c-4.2-1.5-8.5-3-12.8-4.3c-4.3-1.3-8.6-2.7-12.9-4.2c-4.3-1.5-8.5-3-12.8-4.4c-4.3-1.4-8.6-2.7-12.9-4.4c-2.1-0.9-4.2-1.8-6.2-2.9
			c-2-1.1-4-2.3-5.6-4.2c-0.9-1.1-1.2-2.1-1.8-3c-0.6-0.9-1.2-1.9-1.8-2.7c-1.3-1.7-2.9-3.3-4.8-4.5L198.2,143.5z"/>
		<path class="st0" d="M293.8,189.5c2.4,0.4,4.5,1.6,6.2,3c0.9,0.7,1.6,1.5,2.4,2.3c0.7,0.9,1.4,1.7,2,2.6c2.5,3.6,4.2,7.7,5,12
			c0.4,2.1,0.6,4.3,0.5,6.5c0,2.2-0.2,4.3-0.7,6.5l0-0.6c3.7,13.3,7.1,26.6,10.1,40.1c0.8,3.4,1.5,6.7,2.2,10.1
			c0.7,3.4,1.4,6.7,2,10.1c1.3,6.8,2.4,13.6,3.3,20.4c0.9,6.9,1.1,13.8,1.2,20.7c0,6.9-0.1,13.8-0.3,20.7
			c-0.5,13.8,0.3-1.6-0.8,12.1c0.9-13.7,0,1.7,0.3-12.1c0.1-6.9,0.1-13.8,0-20.6c-0.1-6.9-0.5-13.7-1.4-20.5
			c-1-6.8-2.1-13.6-3.6-20.3c-0.7-3.4-1.4-6.7-2.2-10.1c-0.8-3.3-1.5-6.7-2.4-10c-3.2-13.4-6.8-26.7-10.7-39.8l-0.1-0.3l0.1-0.3
			c0.4-1.9,0.6-4,0.5-6c0-2-0.2-4-0.6-6c-0.8-3.9-2.4-7.7-4.7-10.9c-0.6-0.8-1.2-1.6-1.9-2.3c-0.7-0.7-1.4-1.4-2.1-2
			c-1.5-1.2-3.2-2.1-4.9-2.4c-3.5-0.6-10.7,5.8-11.3,5.3S291.4,189.1,293.8,189.5z"/>
		<path class="st0" d="M375.5,203"/>
		<path class="st0" d="M192.4,257.2c-1,2.6-2.2,5.2-3.3,7.8c-1.2,2.6-2.4,5.1-3.6,7.6c-1.2,2.5-2.5,5-4,7.4
			c-1.4,2.4-2.8,4.9-4.2,7.3l-0.4-0.5c4.9-0.9,9.6-2.1,14.4-3.4c4.7-1.3,9.5-2.5,14.3-3.8c4.7-1.3,9.5-2.5,14.3-3.8
			c4.7-1.3,9.5-2.5,14.1-4.4l0.1,0.2c-2.1,1.3-4.4,2.4-6.7,3.3c-1.2,0.4-2.3,1-3.5,1.4l-3.5,1.2c-4.7,1.6-9.5,2.9-14.3,4
			c-4.8,1.1-9.6,2.2-14.5,3.1c-4.9,0.9-9.7,1.7-14.5,2.9l-0.7,0.2l0.3-0.7c1.2-2.5,2.3-5.1,3.5-7.7c1.1-2.6,2.4-5.1,3.7-7.6
			c1.3-2.5,2.6-5,4-7.4c1.4-2.4,2.8-4.9,4.3-7.2L192.4,257.2z"/>
		<path class="st0" d="M199.7,146.3c1.3,3.2,1.7,3-1.7,19.2c-3.3,16.2-8.8,34.5-11.3,38.6s-3.2,10.6-3.2,10.6
			c3-6.2,2.1-1.5-6.7,24.7c-17,48.7-24.5,80.8-26.9,94.3s-5.7,40.1-5.7,40.1H111c0,0,0.5-33.3-2.5-48.5s1.3-51.3,3.8-67.6
			s5.6-19.8,4.4-25.8s3.5-14.6,2.9-17s0.1-11,0.1-11s-2,3.5-3.3,7.3s0.3,4-1.5,3.3s4.8-28,5.5-38.5s2.4-7.1,1.3-9.5
			s-2.5-10.8-2.5-10.8c1.4,4.9,4.6,10.3,4.6,10.3c1.2-2.6-5.5-18.3-5.5-18.3c3.9,3.5,9.1,15.6,17.1,23.3s17.9-0.8,19.1-1.1
			s1.1,9.6,0.4,14.1s-6.1,10.5-5.4,12.1s5.5,0.9,20.4-14.3s24.5-32.6,24.5-35.6s0.9-7.3,0.9-7.3
			C197.6,140.1,198.3,143.2,199.7,146.3z M124.4,173.5c0.4,5.1,1.6,8.3,5.9,16c1.1,2,2.4,4.4,2.8,5.4c1.1,2.4,1,2.3,3.1,3
			c1,0.3,2.3,0.9,2.7,1.3c0.5,0.4,1,0.8,1.1,0.8c0.5,0,0.3-0.6-0.3-1.2c-0.3-0.3-1-1.4-1.5-1.4c-1-0.1-1.4-0.9-0.5-1.1
			c0.7-0.2-0.2-2-0.8-2c-0.8,0-1.7-1-1.7-2c0-0.1-0.7-1-1.6-1.9c-0.9-0.9-5.7-10.3-6-11.3c-0.4-1-0.8-2-1.1-2.2
			c-0.2-0.3-0.4-0.6-0.4-0.8c0-0.1-0.3-1.4-0.7-2.7C124.7,170.1,124.2,170.2,124.4,173.5z M122.5,200.5c-1.8,1.8-2,2.6-1.3,6.3
			c0.6,3.3,0.8,3.2,0.9-0.7c0.2-4.3,0.4-4.8,1.4-3.4c1.9,2.7,3.3,4.1,3.9,4.2c0.9,0.1,3.2-2,3.2-3c0-1.1-1.5-5.7-2.1-6.3
			C127.6,196.6,125.3,197.7,122.5,200.5z"/>
		<path class="st0" d="M211.5,195c0,0-1.9,4.1-1.8,5.3c0,0,5.1-1.4,5.6-2.5C215.3,197.8,212.7,194.8,211.5,195z"/>
		<path class="st0" d="M121.2,172.1c-14,6.2-28.2,12.1-42.2,18.2l-10.5,4.6c-3.5,1.6-7,3.1-10.3,4.9c-3.3,2-6.9,3.5-9.9,5.8
			c-3,2.2-5,5.6-5.9,9.3c-0.3,0.9-0.4,1.8-0.6,2.8c-0.2,0.9-0.3,1.9-0.5,2.8c-0.3,1.9-0.6,3.8-1,5.7c-0.4,1.9-0.8,3.8-1.3,5.6
			c-0.5,1.9-0.9,3.7-0.8,5.6c0,2-0.5,3.9-1,5.8l-1.4,5.6c-0.9,3.7-1.7,7.5-2.4,11.2c-1.5,7.5-2.7,15.1-3.8,22.6
			c-1.1,7.6-1.9,15.2-2.9,22.8l0-0.3c0.6,3.2,0.6,6.2,0.4,9.3c-0.2,3.1-0.6,6.1-1.2,9.1c-0.4,1.5-0.7,3-1.2,4.4l-0.7,2.2l-0.8,2.2
			c-0.5,1.4-1.2,2.8-1.8,4.2c-0.6,1.4-1.3,2.7-2,4.1l0.1-0.4c-0.1,5.5-0.4,10.9-0.5,16.4c-0.2,5.5-0.4,10.9-0.7,16.4
			c0,0.1,0,0.1-0.1,0.1c-0.1,0-0.1,0-0.1-0.1c-0.1-5.5-0.2-10.9-0.2-16.4c0-5.5-0.1-10.9,0-16.4l0-0.2l0.1-0.2
			c0.6-1.4,1.3-2.7,1.9-4.1c0.5-1.4,1.2-2.7,1.6-4.2c1-2.8,1.8-5.7,2.4-8.6c0.6-2.9,1-5.8,1.2-8.8c0.1-2.9,0.1-6-0.4-8.7l0-0.2
			l0-0.1c0.8-7.6,1.9-15.3,3.1-22.8c1.2-7.6,2.6-15.2,4.2-22.7c0.8-3.8,1.8-7.5,2.8-11.2l1.5-5.6c0.5-1.8,1.1-3.7,1.1-5.5
			c-0.1-2,0.4-3.9,0.9-5.8c0.5-1.9,1-3.7,1.3-5.6c0.4-1.9,0.7-3.8,1-5.7c0.1-1,0.2-1.9,0.4-2.8c0.1-1,0.3-1.9,0.6-2.9
			c0.8-3.8,2.8-7.5,5.9-9.9c3.1-2.5,6.6-4.1,9.8-6.2c3.4-2.1,6.9-3.6,10.4-5.2c3.5-1.6,7-3.2,10.6-4.6c14.2-5.9,28.4-11.6,42.9-16.8
			c0.1,0,0.1,0,0.1,0.1C121.3,172,121.2,172.1,121.2,172.1z"/>
		<path class="st0" d="M158.1,161.2c0,0,14.3-2,19.4-8.9c0,0,3.1-4.3,6.3-6.4s0.7,1.3,0.7,1.3s-5.1,3.6-5.3,6c0,0-2.3,2.7-6.4,5.5
			S158.7,162.5,158.1,161.2z"/>
		<path class="st0" d="M202.6,123.3c1-6.3,2.1-12.6,3.6-18.8c0.4-1.5,0.8-3.1,1.3-4.6c0.5-1.5,1.3-2.9,1.8-4.4c0.5-1.5,0.9-3,1-4.6
			c0.1-1.6,0-3.1-0.3-4.7c-0.6-3.1-1.8-6.1-3.1-9c-1.2-3-2.2-6.1-2.8-9.2c-1.3-6.3-1.8-12.7-1.8-19.1c0-3.2,0.1-6.4,0.3-9.6
			c0.1-1.5-0.3-3-0.9-4.4c-0.6-1.4-1.4-2.8-2.3-4c-1.8-2.5-4-4.8-6.4-6.9c-2.4-2.1-5-3.9-7.7-5.6c-10.7-6.7-23.4-10.6-36.2-10
			c0,0-0.1,0-0.1,0c0,0,0,0,0-0.1c3.2-0.3,6.4-0.3,9.6,0c3.2,0.3,6.3,0.9,9.4,1.7c6.2,1.6,12.2,4.2,17.7,7.5
			c2.7,1.7,5.4,3.6,7.8,5.7c2.4,2.1,4.7,4.4,6.6,7.1c0.9,1.3,1.8,2.7,2.4,4.2c0.6,1.5,1,3.2,1,4.9c-0.2,3.2-0.4,6.4-0.4,9.5
			c0,6.4,0.4,12.7,1.7,19c0.6,3.1,1.5,6.2,2.7,9.1c1.2,2.9,2.5,5.9,3,9.1c0.3,1.6,0.4,3.2,0.3,4.8c-0.1,1.6-0.5,3.2-1.1,4.7
			c-0.5,1.5-1.3,2.9-1.9,4.4c-0.5,1.5-0.9,3-1.3,4.6C205,110.8,203.8,117.1,202.6,123.3C202.7,123.4,202.7,123.4,202.6,123.3
			C202.6,123.4,202.6,123.4,202.6,123.3z"/>
		<path class="st0" d="M149.1,18.2c-1.2-2.2-2.2-4.5-2.7-7c-0.2-1.2-0.3-2.5-0.2-3.8l0.2-1c0.1-0.3,0.1-0.5,0.1-0.8
			c0-0.5-0.2-1-0.6-1.4c-0.7-0.9-1.8-1.4-3-1.7c-1.2-0.3-2.4-0.5-3.6-0.5c-2.5,0-4.9,0.5-7.2,1.4c-1.2,0.4-2.3,0.9-3.4,1.5l-3.3,1.7
			c-2.2,1.1-4.5,2.2-6.8,3.1c-2.3,1-4.6,1.8-6.9,2.8c-1.1,0.5-2.3,0.9-3.4,1.5c-1.1,0.6-2.2,1.2-2.9,2.2c0,0,0,0-0.1,0
			c0,0,0,0,0-0.1c0.7-1.1,1.7-1.9,2.8-2.5c1.1-0.6,2.2-1.2,3.3-1.8c2.3-1.1,4.6-2,6.8-3c2.3-1,4.6-1.9,6.8-3
			c2.2-1.1,4.5-2.2,6.9-2.9c2.4-0.7,4.9-1.1,7.4-1.2c1.3,0,2.5,0,3.8,0.3c1.2,0.3,2.5,0.7,3.5,1.7c0.5,0.5,0.8,1.2,0.8,1.9
			c0,0.2,0,0.4,0,0.5l-0.1,0.5l-0.2,0.9c-0.2,1.2-0.1,2.4,0.1,3.6C147.6,13.5,148.3,15.8,149.1,18.2
			C149.2,18.2,149.2,18.2,149.1,18.2C149.1,18.2,149.1,18.2,149.1,18.2z"/>
		<path class="st0" d="M130.8,10c0,0,0.8,1.7,5.8,1.4c5-0.2,6.5,4.1-3.5,2.6s-16.5,5.8-21.2,5.8c-4.7,0,8-3.2,4.7-5
			c-3.3-1.8-12.1,3.8-10.7,1.7c1.5-2.1,7.8-7.6,15.5-6.8C129.3,10.7,130.8,10,130.8,10z"/>
		<path class="st0" d="M86.3,43.8c0.2,1.3,0.3,2.6,0.5,3.9c0.1,0.6,0.2,1.3,0.4,1.8c0.1,0.6,0.4,1.2,0.6,1.4
			c0.2,0.2,0.3,0.5,0.2,0.7l0,0.1c-0.4,1.8-0.7,3.6-1.2,5.4c-0.4,1.8-0.9,3.7-1.1,5.5c-0.5,3.7-0.1,7.5,0.5,11.2
			c0.4,3.7,1.1,7.4,1.9,11c0.3,1.8,0.8,3.6,1.2,5.5c0.2,0.9,0.4,1.8,0.7,2.7c0.2,0.9,0.5,1.8,0.6,2.8l0,0c0,0.1,0,0.1-0.1,0.1
			c0,0-0.1,0-0.1,0c-1.9-3.3-3.4-6.9-4.3-10.6c-1.1-3.7-1.4-7.6-1.6-11.4c-0.1-3.8,0.4-7.6,0.5-11.4c0-1.9,0-3.8,0.2-5.7
			c0.2-1.9,0.6-3.8,1.2-5.7l0.2,0.8c-0.3-0.4-0.5-0.8-0.6-1.2c-0.1-0.4-0.2-0.7-0.2-1.1c-0.1-0.7-0.1-1.4-0.1-2c0-1.3,0.2-2.7,0.5-4
			C86.1,43.8,86.1,43.7,86.3,43.8C86.2,43.8,86.2,43.8,86.3,43.8z"/>
		<path class="st0" d="M115,135.8c-0.4-1,0.6-2-2.3-3.4s-2.5,0.6-4,2.8s-5.6,0.2-7.5-3.4s-4.3-4.6-7.5-10.8s-4.9-3.4-7.1-11.2
			s1.3-10.9,2.4-11.9s1.1-2.8,1.1-2.8c0.5,1.5,3.5,3.1,7.1,3.7s1.4,1.2,1.4,1.7c0.7,0.9,2.9,8.3,2.9,8.3c-1.2,0.8-1.1,2.9-1.1,2.9
			L100,114c-0.9,1.4,2,1.1,2,1.1c1-5.6,3.3-9.8,2.6-10.5s-0.9-3.9-0.1-7.6s1.6-2.8,2.8-2.3s7.2-2.2,7.2-2.2s1.1,3.6,4.3,6.4
			s9.7,1.4,15.6,0.5s3.3,0-0.6,1.5s-2.3,1.9,2.9,0.3s1.4,3.4,1.4,3.4s-8.8,16.1-9.3,20.2s1.8,3.6,2.3,0.8s8.3-17.4,8.3-17.4
			s0.1-7.1,2.3-7.6s3.3-4.7,5.3-7.1s1.1-11.4,4.1-12.8s5.3-1.1,5.5,4.3s4,10.1,4.9,11.4s0.8,3.3,2,2.9c3-1.3,5,1.7,4.1,3.6
			s-1.8-1.8-3.4-0.6s-3.9,6.4-7.6,6.6s-4.5,2.5-7.8,0.1s-9.1,0.2-6.3,1.6c5.8,2.4,3.4-1.3,8.8,2.3s11.5,3.8,15.8,2.7
			s4.8,4.8,4.2,5.7s-5.4,0.5-9.3,0.9s-0.7,1.5-3.3,2.8s-13.4,1.5-13.4,1.5c-7.9,3.7-9,0.3-10.5,2.3c-1.6,2.9,1.3,0.3,1.3,0.3
			c1.4,1.3,5.8,0.8,5.8,0.8c16.2-2.4,9.3,1,12.9-0.8s18.6-1,21.2-1.6s2.4-5.7,2.4-5.7c1.8-0.8,1.4,1.7,2.3,0.8
			c2.7-5.6-10.4-20.3-11.1-22.6c-0.9-3.4,0.1-1.6,5.3-0.4c4.5-0.3-5.4-2.8-5.4-2.8c21.3-0.4,22-5.8,22-5.8s1.1,3.1,0.2,6.2
			s-5.4,0.7-5.5,2.3s3.2,0.7,2.2,7.2s-0.3,13.4,0.3,18.1s-5.6,14.5-5.6,14.5c-3.1,3.8-13.3,8.6-14,9.7s-10.4,6.1-10.4,6.1
			s-0.8,0.2-1.5,0.4s-1.4,1.2-3.2,0.2s-1.2-0.9-1.2,0.4s-5.2,0.4-5.2,0.4c-25.3-2.2-30.1-18.6-30.1-18.6
			C116.1,135.9,115.5,136.8,115,135.8z M171.8,128.9c0,0-4.6,4.4-6.7,4.2s1.8,2,4,0.3s1.3-2.2,2.2-2.9S172.6,128.9,171.8,128.9z
			 M178,120.4c0,0-0.3-4.3-2-5.9s-1.8,0.9-1.1,2.3s1.6,2,1.4,3.2S177.2,121.9,178,120.4z M128.2,102.5c3.4-0.1,2.4-1.3,0.9-1.5
			c-1.5-0.3-5.9,0.3-5.9,0.3C124.7,101.7,124.8,102.6,128.2,102.5z M95.2,102.1c-4.6-3.7-8.6,1.5-6,7.7c0.6,1.5,1.4,2.3,1.4,1.4
			c0-1.2,1.1-4,1.7-4c0.4,0,0.6-0.3,0.6-1c0-2.9,1.7-3.9,3.4-1.9c0.4,0.5,0.8,0.8,0.9,0.6C97.4,104.4,96.7,103.3,95.2,102.1z"/>
		<path class="st0" d="M121.9,88.3c0,0,4.3-4.1,9.9-5.6c5.6-1.5,1.8-2-0.5-2.3c-3-0.4-7.7,0.2-9.8,2.7s-1.3,5.3,1.8,2.3
			C123.4,85.3,121,87.8,121.9,88.3z"/>
		<path class="st0" d="M179.4,76.5c0,0-9.7-0.8-14.9,2.4c-2.5-0.3,6.3-3.3,2.2-3.2c0,0,6-3.3,11.8-2.2c0,0,0.6,1.2,1.6,1.3
			C181,75,178.3,75.8,179.4,76.5z"/>
		<path class="st0" d="M127.5,88.1c0,0,2.6,2.5,7.5,0.1s3.6,0.1,3.6,0.1s-7.1,2.2-7.5,3.3c-0.3,1.2,12.8-3.8,14.8-7.7
			c0,0-0.1,9.1-3.8,11.7c-3.7,2.6-22.2,4.4-23,0c0,0,0.2-3.7,3.5-3.5s0.9-0.8,1.5-1.5C124.5,90.1,126.3,90.8,127.5,88.1z"/>
		<path class="st0" d="M168.7,81.8c0,0,3.5,2.9,4.3,3.2c0.8,0.3-0.1,0.8-1.5,0.7c-1.4,0-1.8,0.2,0,0.8c1.8,0.5,6.9,0.8,8-0.3
			c0,0,0.6,1,1.3,0.9c0.7-0.2-0.5,1.8,0.6,1.8s0.7-2.1,1.5-1.5c0.8,0.6,1-1.6,1.3-0.2s1.1,4.9-2.1,6c-3.2,1.1-17.5,2.4-16.5-0.9
			c0,0,1-0.6,0.4-1.7c-0.5-1.1-1.3-2.3-1.2-3.5c0,0-1.8-1.6,0.2-0.8c2,0.8,0.4-2,2.1-2.1s2.7,0.9,1.2-1
			C166.8,81.2,168.7,81.8,168.7,81.8z"/>
		<path class="st0" d="M188.4,90.6c0,0-0.3-0.7-1.4,0.1s-3,2.5-1.8,2.1C186.4,92.4,188.6,91.5,188.4,90.6z"/>
		<path class="st0" d="M183.3,68.9c0,0-9.3-5.1-25.5,5.2c0,0-1.9-1.4-2.6-3c0,0,0.6,4.8-1.3,4.6s-4.6,1.4-5.9,0.6s-10-3.3-24.9,0.6
			s-13.2,1.9-17.5,5.2s-2.3-0.8-1.8-4.6s2.4-8.8,0.5-7.9s-11.6-4.8,3.5-15.5s27.4-17.8,38.1-14.5c0,0,14.2-9.1,21.4-2.1
			s10.6,1.1,14.5,14S183.3,68.9,183.3,68.9z"/>
	</g>
	<g>
		<path class="st0" d="M352,434.9H3.3v-65l216.7,0.3v-24h132V434.9z M39.7,409.2c0,0-8.8-18.9-13.1-28.2c-2.7,0-5.2,0-7.9,0
			c-1.8,14.8-3.6,29.4-5.4,44.2c3.2,0,6.2,0,9.3,0c1.1-8.6,3.5-25.6,3.5-25.6l9.8,20.5h7.4l9.8-20.6l3.4,25.7h8.4l0-9.7l-4.1-34.4
			h-8L39.7,409.2z M186.8,425.3c0,0,0-9.9,0-14.4c-1.7-4.8-2.4-8.7-0.1-16.8l0.1-13h-9.5v25.6l-14.9-25.6h-8.7v44.1h9.5v-25.7
			l15.1,25.7L186.8,425.3z M309.5,394.4c0,0.4,0.1,0.9,0.3,1.3c1.4,4,1.6,8.1,0.8,12.3c-0.5,3.7-1.1,4.6-1.1,4.6l-0.1,12.6
			c0,0,6.4,0,9.5,0c0-8.7,0-25.9,0-25.9l15.1,25.9c0,0,5.6,0,8.4,0c0-14.8,0-29.5,0-44.1c-3.2,0-6.2,0-9.4,0c0,8.6,0,25.4,0,25.4
			s-5.1-8.4-7.6-12.7c-2.5-4.3-7.3-12.8-7.3-12.8l-8.7,0C309.5,381,309.5,390.1,309.5,394.4z M239.7,381c-0.9,0-1.6,0-2.4,0
			c-1.6,2.7-4.2,3.3-7,3.4c0,13.7,0,27.2,0,40.7c3.2,0,6.3,0,9.5,0c0-5.9,0-11.7,0-17.5c5.2,0,10.2,0,15.4,0c0,5.9,0,11.7,0,17.6
			c3.3,0,6.4,0,9.6,0c0-0.4,0.1-0.6,0.1-0.9c0-3.4,0-6.7,0-10.1c0-0.5-0.2-1-0.4-1.5c-2.3-5.8-2.7-11.7-0.6-17.6
			c0.8-2.2,1.1-4.3,1-6.5c0-0.8,0-1.7,0-2.5c0-1.7,0-3.3,0-5.1c-3.3,0-6.5,0-9.7,0c0,6,0,11.8,0,17.8c-5.2,0-10.2,0-15.5,0
			C239.7,392.8,239.7,387,239.7,381z M133.5,416.8v-9.3h16v-8.3h-16v-9.9h18.3v-8.2h-27.9v44.1h28.5v-8.4H133.5z M203.8,381.2
			c-9.6,2.4-16.6,10.9-16.6,22.1c0,10.8,7.2,19.8,17.2,22c10.4,2.3,19.8-2.7,23.6-9.3c-2.5-1.7-5-3.5-7.6-5.3
			c-0.4,0.5-0.7,0.9-1,1.2c-5.7,7-15.9,6.4-20.6-1.2c-2.1-3.3-2.5-7-1.7-10.7c1-4.8,3.7-8.4,8.4-10c4.7-1.6,9.1-0.5,12.8,2.9
			c0.7,0.6,1.3,1.4,2,2.2c2.5-1.7,5.1-3.5,7.6-5.2C224,383.5,214.2,378.5,203.8,381.2z M280.8,381.2c-9.6,2.4-16.6,10.9-16.6,22.1
			c0,10.8,7.2,19.8,17.2,22c10.4,2.3,20.2-2.6,24-9.2c3.3-6.3,6.7-14.2,0.2-26C301.7,383.7,291.2,378.5,280.8,381.2z M76.4,399.3
			v-10h18.3v-5.4H72.1v-2.8h-5.3v44.1h28.5v-8.4H76.4v-9.2h16v-8.3H76.4z M122.6,416.8h-16.5v-35.7h-9.4v44.2h25.9V416.8z
			 M285.1,376.3c0-6.4,0-12.8,0-19.1c-1.6,0-3.1,0-4.7,0c0,3.2,0,6.3,0,9.5c-0.1,0-0.2,0-0.2,0c-1.8-3.2-3.6-6.4-5.3-9.5
			c-1.5,0-2.9,0-4.3,0c0,6.4,0,12.7,0,19.1c1.6,0,3.1,0,4.8,0c0-3.3,0-6.4,0-9.6c0.1,0,0.1,0,0.2,0c1.8,3.2,3.6,6.5,5.4,9.6
			C282.4,376.3,283.8,376.3,285.1,376.3z M269.6,376.3l-0.1-3.3l-5.9-15.9h-5.3l-7.1,19.1h5.3l1.3-4h6.2l1.5,4H269.6z M309.3,370.5
			c0,0.2,0.1,0.5,0.1,0.7c1.4,5.5,8.7,7.5,12.8,3.5c1.7-1.6,2.5-3.6,1.9-6.1c-0.3-1.4,0-3,0.1-4.5c0.1-2.3,0.2-4.6,0.3-6.9
			c-1.8,0-3.3,0-5,0c0,0.5,0,1,0,1.4c0,3.5,0,7,0,10.4c0,0.5,0,1-0.2,1.4c-0.4,1.2-1.8,1.9-3,1.7c-1.4-0.2-2.3-1.3-2.4-2.7
			c0-3.6,0-7.3,0-10.9c0-0.5-0.1-0.9-0.1-1.4c-1.6,0-3.1,0-4.7,0C309.3,361.7,309.3,366.1,309.3,370.5z M332.2,357.2
			c-4.5,1.2-7.4,5.3-7.3,10.1c0.1,4.5,3.4,8.3,8,9.2c4.5,0.9,8.6-1.5,10-4.4c-1.2-0.9-2.5-1.8-3.7-2.6c-3,2.8-5.9,3-8,0.8
			c-2-2-1.9-5.2,0.2-7.2c2.2-2.1,4.9-1.8,7.7,1c1.2-0.9,2.5-1.7,3.8-2.7C341,357.9,336.3,356.1,332.2,357.2z M251.7,361.3
			c0-1.5,0-2.7,0-4.1c-4.2,0-8.3,0-12.4,0c0,6.4,0,12.8,0,19.2c3.7,0,7.3,0,11,0c0.5-1.3,1-2.6,1.5-4.1c-2.7,0-5.2,0-7.8,0
			c0-1.1,0-2.1,0-3.3c2.3,0,4.5,0,6.7,0c0-1.4,0-2.7,0-4.1c-2.3,0-4.4,0-6.7,0c0-1.2,0-2.2,0-3.5
			C246.7,361.3,249.2,361.3,251.7,361.3z M228.7,383c5.2,1.1,9-1.3,8.9-7c-0.1-6,0-11.9,0-17.9c0-0.5,0-0.9,0-1.4
			c-1.8,0-3.3,0-5.1,0c0,0.5,0,1,0,1.5c0,6,0,12.1,0,18.1c0,1.9-0.7,2.5-2.6,2.3c-0.6-0.1-1.2-0.1-1.9-0.2c-0.1,1.5-0.3,2.9-0.4,4.3
			C228,382.8,228.4,382.9,228.7,383z M298.9,376.3c3.9,0,8,0,12.3,0c-1.6-1.2-2.4-2.2-2.8-4.1c-1.6,0-2.9,0-4.7,0c0-5,0-10,0-15
			c-1.7,0-3.2,0-4.8,0C298.9,363.7,298.9,370,298.9,376.3z M95.2,382.7v-3.5H73.4v3.5H95.2z M287.8,366.8c0,1,0,1.9,0,2.8
			c3.2,0,6.3,0,9.5,0c0-1,0-1.9,0-2.8C294,366.8,290.9,366.8,287.8,366.8z"/>
		<path class="st0" d="M262.6,367.9c-0.6-1.9-1.1-3.6-1.6-5.3c-0.1,0-0.2,0-0.3,0c-0.5,1.7-0.9,3.5-1.4,5.3
			C260.4,367.9,261.4,367.9,262.6,367.9z"/>
		<path class="st0" d="M299.9,403.3c-0.2-1.4-0.3-2.8-0.7-4.1c-2.5-9.1-13.4-12.7-20.3-6.8c-4.9,4.2-6.4,11.4-3.5,17.2
			c2.5,5.1,7.9,8,13.1,7.2C295.1,415.7,299.7,410.3,299.9,403.3z"/>
	</g>
</g>
</svg>
