<svg width="179" height="34" viewBox="0 0 179 34" fill="none" xmlns="http://www.w3.org/2000/svg">
<path d="M11.1772 23.9849V0.937683H0.726379V32.7411H19.6735L20.1437 31.6195L23.3445 23.9849H11.1772V23.9849Z" fill="white"/>
<path d="M36.115 0.937683L22.7811 32.7411H33.5023L35.1239 28.2497H46.9707L48.5473 32.7411H55.4213V22.2067L46.8356 0.937683H36.115V0.937683ZM37.8266 20.7187L41.1599 11.4178L44.4032 20.7187H37.8266Z" fill="white"/>
<path d="M68.735 24.7563V20.8092H80.4787C80.221 19.48 80.0882 18.1048 80.0882 16.6988C80.0882 15.3748 80.2119 14.0792 80.4517 12.8243H68.735V8.92251H81.6286C82.4457 6.98708 83.5771 5.20736 84.9968 3.64481V0.937683H58.2841V32.7411H85.4022V30.4856C83.8166 28.8183 82.5624 26.8814 81.6713 24.7562H68.735V24.7563Z" fill="white"/>
<path d="M108.194 20.4044C106.052 22.7028 103.117 24.1568 100.789 24.1568C96.8766 24.1568 94.0356 20.9673 94.0356 16.558C94.0356 12.1956 96.8766 9.05294 100.789 9.05294C103.304 9.05294 106.238 10.7884 108.194 13.4622L114.435 6.00396C111.082 2.34521 105.633 0 100.649 0C90.4028 0 82.951 7.03586 82.951 16.6987C82.951 26.5021 90.2165 33.6788 100.23 33.6788C103.48 33.6788 106.944 32.6002 109.969 30.762C109.801 30.095 109.712 29.3939 109.712 28.6706C109.712 26.8295 110.287 25.1257 111.343 23.7886L108.194 20.4044V20.4044Z" fill="white"/>
<path d="M29.5356 9.27623H22.5964L25.1836 0.975739H32.9855L29.5356 9.27623Z" fill="white" fill-opacity="0.498039"/>
<path d="M146.026 8.92262V0.937683H120.619V21.6795C121.438 22.0425 122.179 22.5446 122.81 23.1756C124.216 24.5813 124.99 26.5328 124.99 28.6709C124.99 30.1584 124.621 31.5548 123.933 32.7412H131.07V22.3971H145.08V14.4123H131.07V8.92262H146.026V8.92262Z" fill="white"/>
<path d="M164.315 0.937683H149.044V32.7411H159.495V24.4839H163.414L167.198 32.7411H179L172.784 22.397C176.027 20.4009 177.784 16.9529 177.784 12.3251C177.784 5.06631 172.874 0.937683 164.315 0.937683V0.937683ZM164.315 16.4993H159.495V8.92262H164.315C166.567 8.92262 167.873 10.2837 167.873 12.6428C167.873 15.0928 166.567 16.4993 164.315 16.4993Z" fill="white"/>
<path d="M117.327 23.8839C114.532 23.8839 112.575 25.8549 112.575 28.6707C112.575 31.5333 114.532 33.5041 117.327 33.5041C120.17 33.5041 122.127 31.5333 122.127 28.6707C122.127 25.8549 120.17 23.8839 117.327 23.8839Z" fill="white" fill-opacity="0.498039"/>
</svg>
