<svg xmlns="http://www.w3.org/2000/svg" width="1200" height="123" viewBox="0 0 1200 122.6"><path d="M800.1 24.9c-2.2-5-5.2-9.4-9-13 -3.8-3.7-8.3-6.6-13.4-8.7C772.6 1.1 767.2 0 761.4 0h-44.1v122.6h23.8V82.6h20.3c5.7 0 11.2-1 16.3-3.1 5.1-2.1 9.6-5 13.4-8.7 3.8-3.7 6.8-8.1 9-13.2 2.2-5.1 3.3-10.5 3.3-16.3C803.4 35.3 802.3 29.9 800.1 24.9zM777.9 49.8c-1.2 2.8-2.8 5.3-4.8 7.4 -2 2.1-4.4 3.9-7.2 5.1 -2.8 1.3-5.7 1.9-8.9 1.9h-15.8V18h15.8c3.2 0 6.1 0.6 8.9 1.8 2.8 1.2 5.2 2.9 7.2 4.9 2 2 3.7 4.5 4.8 7.2 1.2 2.8 1.8 5.7 1.8 8.9C779.6 44 779 47 777.9 49.8zM518.4 122.6h81v-20.7h-57.7V68.1h56.9V49h-56.9V19.6h57.7V0h-81V122.6zM506-0.2h-28.2l-50.2 54.8V-0.2h-23.8v122.8h23.8V68.3l49.1 54.3h31l-57.1-62.5L506-0.2zM617.9 122.6h81v-20.7h-57.7V68.1h56.9V49h-56.9V19.6h57.7V0h-81V122.6z" fill="#FFF"/></svg>
