<svg xmlns="http://www.w3.org/2000/svg" width="1200" height="127" viewBox="0 0 1200 127.4"><path d="M644.7 2.5h-24.2v122.6h83V102.1h-58.8V2.5zM440.7 99.5c-5.8 3.4-12.5 5.1-20.1 5.1 -5.7 0-11.1-1.1-16.2-3.3 -5.1-2.2-9.5-5.2-13.3-8.9 -3.8-3.7-6.8-8.1-9-13 -2.2-5-3.3-10.2-3.3-15.7 0-5.6 1.1-10.9 3.3-15.9 2.2-5 5.2-9.3 9-13 3.8-3.7 8.2-6.7 13.3-8.9 5.1-2.2 10.5-3.3 16.2-3.3 7.2 0 13.7 1.7 19.7 5 6 3.3 10.9 7.7 14.7 13.1l16.4-16.9c-5.8-7.1-13.1-12.8-21.9-17.2C440.8 2.2 431.1 0 420.6 0c-9.1 0-17.6 1.6-25.6 4.9 -8 3.3-14.9 7.8-20.8 13.6 -5.9 5.8-10.6 12.5-14 20.3s-5.1 16-5.1 24.9c0 8.9 1.7 17.2 5.1 24.9 3.4 7.7 8.1 14.5 14 20.2 5.9 5.7 12.8 10.3 20.8 13.6 8 3.3 16.5 5 25.6 5 10.5 0 20.2-2.2 28.9-6.6 8.7-4.4 16.2-10.3 22.3-17.8l-16.6-17C451.4 91.6 446.5 96.1 440.7 99.5zM813.8 2.3l-35.6 60.9L744.1 2.3h-26.9v122.8h23.3V42.5l37.1 65.8 38.7-65.2v81.9h23.3V2.3H813.8zM531.6 2.3l-58 122.8h26.1l11.5-24.6h59.5l11.4 24.6h26.1L550.1 2.3H531.6zM520.2 80.7l20.7-44.2 20.4 44.2H520.2z" fill="#FFF"/></svg>