<svg xmlns="http://www.w3.org/2000/svg" width="1200" height="61" viewBox="0 0 1200 61.4"><path d="M615.3 40.1L589.3 0h-13.4v61.4h11.7V18.3l27.7 43h11.7V0h-11.7V40.1zM531.5 0l-29 61.4h13l5.8-12.3h29.8l5.7 12.3h13L540.8 0H531.5zM525.8 39.2l10.4-22.1 10.2 22.1H525.8zM690.9 18.8c-1.4-3.7-3.4-7-6-9.7 -2.6-2.8-5.6-5-9.2-6.6C672.2 0.8 668.3 0 664.1 0h-25.6v61.4h25.6c4.2 0 8.1-0.8 11.6-2.4 3.6-1.6 6.6-3.8 9.2-6.6 2.6-2.8 4.6-6 6-9.7 1.4-3.7 2.1-7.7 2.1-11.9C693 26.5 692.3 22.5 690.9 18.8zM679.5 38.7c-0.9 2.5-2.3 4.7-4 6.6 -1.7 1.9-3.8 3.3-6.3 4.4 -2.5 1-5.3 1.6-8.4 1.6h-10.4V9.4h10.4c3.2 0 6 0.6 8.6 1.7 2.5 1.1 4.7 2.6 6.4 4.5 1.7 1.9 3.1 4.2 4 6.7 0.9 2.6 1.4 5.3 1.3 8.1C680.9 33.4 680.4 36.2 679.5 38.7z" fill="#FFF"/></svg>