<svg xmlns="http://www.w3.org/2000/svg" width="1200" height="127" viewBox="0 0 1200 127.4"><path d="M628.8 23.6h33.9v101.4h24.1V23.6h33.9V2.5h-91.9V23.6zM817.1 22.1V2.5h-81v122.6h81v-20.7h-57.7v-33.8h56.9V51.4h-56.9V22.1H817.1zM435.3 88.5L403.3 2.3h-26.4l47.6 122.8h21.8L492.8 2.3h-26.1L435.3 88.5zM605.5 18.5c-5.9-5.8-12.8-10.3-20.7-13.6C576.9 1.6 568.5 0 559.6 0c-8.9 0-17.3 1.6-25.2 4.9 -7.9 3.3-14.8 7.8-20.8 13.5 -5.9 5.7-10.6 12.5-14 20.3 -3.4 7.8-5.1 16.1-5.1 25 0 8.9 1.7 17.2 5.1 24.9 3.4 7.7 8.1 14.5 14 20.2 5.9 5.7 12.9 10.3 20.8 13.6 7.9 3.3 16.3 5 25.2 5 8.9 0 17.3-1.7 25.1-5 7.9-3.3 14.8-7.9 20.7-13.6 5.9-5.7 10.6-12.5 14-20.3 3.4-7.8 5.1-16.1 5.1-24.9 0-8.9-1.7-17.2-5.1-24.9C616.1 31 611.4 24.3 605.5 18.5zM597.6 79.5c-2.2 5-5.1 9.4-8.8 13.1 -3.7 3.7-8.1 6.7-13.1 8.9 -5 2.2-10.4 3.3-16 3.3 -5.7 0-11.1-1.1-16.1-3.3 -5-2.2-9.4-5.2-13.1-8.9 -3.7-3.7-6.7-8.1-8.8-13.1 -2.2-5-3.2-10.3-3.2-15.8 0-5.6 1.1-10.9 3.2-15.9 2.2-5 5.1-9.3 8.8-13 3.7-3.7 8.1-6.7 13.1-8.9 5-2.2 10.4-3.3 16.1-3.3 5.6 0 11 1.1 16 3.3s9.4 5.2 13.1 8.9c3.7 3.7 6.7 8.1 8.8 13 2.2 5 3.2 10.3 3.2 15.9C600.9 69.2 599.8 74.5 597.6 79.5z" fill="#FFF"/></svg>